<?xml version="1.0" encoding="UTF-8"?>
<svg width="24px" height="24px" viewBox="0 0 24 24" version="1.1" xmlns="http://www.w3.org/2000/svg" xmlns:xlink="http://www.w3.org/1999/xlink">
    <!-- Generator: Sketch 53.2 (72643) - https://sketchapp.com -->
    <title>btc</title>
    <desc>Created with Sketch.</desc>
    <g id="Page-1" stroke="none" stroke-width="1" fill="none" fill-rule="evenodd">
        <g id="Desktop-HD" transform="translate(-91.000000, -66.000000)" fill-rule="nonzero">
            <g id="btc" transform="translate(91.000000, 66.000000)">
                <path d="M23.6427914,14.675184 C22.0646991,21.0049071 15.6537452,24.8570917 9.32328369,23.2786302 C2.99540677,21.7005378 -0.856777846,15.2892148 0.722052923,8.95986092 C2.29940677,2.62939938 8.71036062,-1.22315446 15.038976,0.354937846 C21.3690683,1.93303015 25.2208837,8.34509169 23.6427914,14.675184 L23.6427914,14.675184 Z" id="Path" fill="#F7931A"></path>
                <path d="M17.3917145,10.1336455 C17.6269145,8.56146092 16.4298683,7.71629169 14.7930683,7.15247631 L15.3240222,5.02275323 L14.0276529,4.69967631 L13.5107298,6.77327631 C13.1699298,6.68835323 12.8198991,6.60823015 12.4720837,6.52884554 L12.9926991,4.441584 L11.6970683,4.11850708 L11.1657452,6.24749169 C10.8836529,6.18324554 10.6067298,6.11973785 10.3379298,6.05290708 L10.3394068,6.04626092 L8.55159138,5.59986092 L8.20672985,6.98447631 C8.20672985,6.98447631 9.168576,7.20490708 9.14826831,7.21856862 C9.67331446,7.34964554 9.76820677,7.69709169 9.75232985,7.97253785 L9.14752985,10.3987532 C9.18371446,10.407984 9.23060677,10.4212763 9.28229908,10.4419532 C9.23909908,10.4312455 9.19294523,10.4194302 9.14531446,10.407984 L8.29756062,13.8067532 C8.23331446,13.9662609 8.07048369,14.2055225 7.70346831,14.1146917 C7.71639138,14.1335225 6.76119138,13.8794917 6.76119138,13.8794917 L6.11762215,15.3634302 L7.80463754,15.783984 C8.11848369,15.8626302 8.42605292,15.9449686 8.72882215,16.0225071 L8.19232985,18.1765994 L9.48722215,18.4996763 L10.0185452,16.3684763 C10.3722683,16.4644763 10.7156529,16.5530917 11.0516529,16.6365378 L10.522176,18.7577686 L11.8185452,19.0808455 L12.3550375,16.9308148 C14.5656222,17.3491532 16.2278991,17.1804148 16.9275914,15.1810302 C17.4914068,13.571184 16.8995298,12.6425686 15.7364529,12.0370302 C16.5834683,11.8417071 17.2214991,11.2845378 17.3917145,10.1336455 L17.3917145,10.1336455 Z M14.4297452,14.2871225 C14.0291298,15.8969686 11.3186068,15.0266917 10.4398375,14.8084763 L11.1517145,11.9546917 C12.0304837,12.1740148 14.8484529,12.6082302 14.4297452,14.2871225 Z M14.8307298,10.110384 C14.4651914,11.5747532 12.2091914,10.8307532 11.477376,10.6483532 L12.1227914,8.06004554 C12.8546068,8.24244554 15.2114068,8.58287631 14.8307298,10.110384 Z" id="Shape" fill="#FFFFFF"></path>
            </g>
        </g>
    </g>
</svg>