<svg width="24" height="24" viewBox="0 0 24 24" fill="none" xmlns="http://www.w3.org/2000/svg">
<path d="M12 20.975L10.975 20.05C9.20833 18.4333 7.75 17.0375 6.6 15.8625C5.45 14.6875 4.53333 13.6375 3.85 12.7125C3.16667 11.7875 2.6875 10.95 2.4125 10.2C2.1375 9.45 2 8.69167 2 7.925C2 6.425 2.50417 5.17083 3.5125 4.1625C4.52083 3.15417 5.76667 2.65 7.25 2.65C8.2 2.65 9.07917 2.875 9.8875 3.325C10.6958 3.775 11.4 4.425 12 5.275C12.7 4.375 13.4417 3.7125 14.225 3.2875C15.0083 2.8625 15.85 2.65 16.75 2.65C18.2333 2.65 19.4792 3.15417 20.4875 4.1625C21.4958 5.17083 22 6.425 22 7.925C22 8.69167 21.8625 9.45 21.5875 10.2C21.3125 10.95 20.8333 11.7875 20.15 12.7125C19.4667 13.6375 18.55 14.6875 17.4 15.8625C16.25 17.0375 14.7917 18.4333 13.025 20.05L12 20.975ZM12 19C13.6833 17.45 15.0708 16.1208 16.1625 15.0125C17.2542 13.9042 18.1208 12.9333 18.7625 12.1C19.4042 11.2667 19.8542 10.525 20.1125 9.875C20.3708 9.225 20.5 8.575 20.5 7.925C20.5 6.825 20.15 5.92083 19.45 5.2125C18.75 4.50417 17.85 4.15 16.75 4.15C15.9 4.15 15.1083 4.4125 14.375 4.9375C13.6417 5.4625 13.05 6.2 12.6 7.15H11.375C10.9417 6.21667 10.3583 5.48333 9.625 4.95C8.89167 4.41667 8.1 4.15 7.25 4.15C6.15 4.15 5.25 4.50417 4.55 5.2125C3.85 5.92083 3.5 6.825 3.5 7.925C3.5 8.575 3.62917 9.22917 3.8875 9.8875C4.14583 10.5458 4.59583 11.2958 5.2375 12.1375C5.87917 12.9792 6.75 13.95 7.85 15.05C8.95 16.15 10.3333 17.4667 12 19Z" fill="black"/>
</svg>
