<svg width="20" height="20" viewBox="0 0 20 20" fill="none" xmlns="http://www.w3.org/2000/svg">
<path d="M4.84175 4.52937C7.43094 2.0335 11.2842 2.13297 13.6806 4.52937C15.9721 6.82093 16.1122 10.4492 14.1009 12.9042L17.6581 16.4618L16.7742 17.3457L13.2166 13.7885C10.7616 15.7999 7.13331 15.6598 4.84175 13.3682C2.44535 10.9718 2.33267 6.94803 4.84175 4.52937ZM12.7967 5.41326C10.8441 3.46064 7.67826 3.46064 5.72563 5.41326C3.77301 7.36588 3.77301 10.5317 5.72563 12.4843C7.67826 14.4369 10.8441 14.4369 12.7967 12.4843C14.7493 10.5317 14.7493 7.36588 12.7967 5.41326Z" fill="#464346"/>
</svg>
